<svg width="50" height="50" viewBox="0 0 50 50" fill="none" xmlns="http://www.w3.org/2000/svg">
<path d="M36.0083 24.9699L36.019 24.9754V24.8128C36.019 24.3113 36.0188 23.8098 36.0185 23.3083C36.0179 21.9715 36.0173 20.6348 36.0212 19.2981M36.0212 19.2981C36.0212 19.2981 36.0212 19.2981 36.0212 19.2982L35.9212 19.2978L36.0212 19.2981Z" fill="#01C0CC" stroke="#01C0CC" stroke-width="0.2"/>
<path d="M12.315 37.3935C13.275 38.3803 14.2593 39.1817 15.3327 39.8709C18.7217 42.0442 22.4332 42.9938 26.4391 42.68C33.7013 42.1116 39.8694 37.1506 42.0042 30.1799C43.1953 26.2896 43.0622 22.4265 41.6294 18.613C41.6148 18.5743 41.5989 18.5345 41.5827 18.4937C41.5387 18.3831 41.4921 18.266 41.4601 18.1478L41.4601 18.1476C41.4122 17.9694 41.4085 17.7942 41.473 17.6424C41.5387 17.4876 41.6689 17.3717 41.8587 17.3035L41.8591 17.3034C42.0465 17.2369 42.2247 17.2399 42.3759 17.3153C42.5263 17.3904 42.6356 17.5301 42.7004 17.7095L42.7005 17.7098C42.7656 17.8921 42.8337 18.075 42.9021 18.2588C43.1213 18.8476 43.3436 19.4449 43.4825 20.0587C44.375 23.9811 44.3002 27.606 43.237 30.9103C42.1738 34.2147 40.1241 37.1921 37.0768 39.8222C34.0991 42.3931 30.5362 43.7544 26.6118 44.04C20.5887 44.4787 15.4536 42.4965 11.2036 38.2134C11.1801 38.1899 11.1563 38.1677 11.1273 38.1412L10.8772 40.3519L12.315 37.3935ZM12.315 37.3935C12.3286 37.3945 12.3419 37.3954 12.3549 37.3964C12.4634 37.4042 12.5513 37.4105 12.6402 37.4189C13.0496 37.4628 13.4592 37.5073 13.8688 37.5519C14.4781 37.6182 15.0875 37.6845 15.697 37.7485C15.697 37.7485 15.697 37.7485 15.697 37.7485L12.315 37.3935ZM9.96133 42.4562L9.96105 42.4561C9.77602 42.4292 9.62166 42.3373 9.52029 42.1947C9.41939 42.0527 9.37606 41.868 9.39759 41.6627L9.3976 41.6626C9.57796 39.9584 9.76263 38.2542 9.95054 36.5511L9.96133 42.4562ZM9.96133 42.4562C10.1548 42.4838 10.3327 42.4333 10.4686 42.3138C10.6032 42.1955 10.6885 42.0168 10.7151 41.801C10.7549 41.4779 10.7899 41.1536 10.8249 40.83M9.96133 42.4562L10.8249 40.83M10.8249 40.83C10.8421 40.6705 10.8594 40.5111 10.8772 40.352L10.8249 40.83ZM10.1874 36.034C10.3277 35.9141 10.5176 35.8712 10.7425 35.8941L10.1874 36.034ZM10.1874 36.034C10.048 36.1529 9.97433 36.3335 9.95055 36.551L10.1874 36.034Z" fill="#01C0CC" stroke="#01C0CC" stroke-width="0.2"/>
<path d="M38.8689 11.8797C38.89 11.6934 38.911 11.5086 38.9318 11.3252C39.0504 10.2779 39.1642 9.27331 39.2766 8.268C39.3038 8.02408 39.3784 7.82578 39.5099 7.69433C39.645 7.55932 39.8267 7.508 40.036 7.53365L40.0361 7.53366C40.2351 7.55832 40.3944 7.64924 40.4938 7.80603C40.5911 7.95943 40.6227 8.16271 40.5976 8.39866L40.5976 8.39874C40.4165 10.0872 40.2321 11.7746 40.0478 13.4618C40.0223 13.6945 39.9419 13.8816 39.7892 14.0012C39.6371 14.1204 39.4321 14.1577 39.1897 14.1319L39.1895 14.1319C38.2977 14.0353 37.4057 13.9348 36.5143 13.8343C36.0812 13.7855 35.6483 13.7367 35.2156 13.6884L35.2155 13.6884C35.0657 13.6715 34.9134 13.6554 34.7606 13.6393C34.5771 13.6199 34.3929 13.6005 34.2117 13.5794L38.8689 11.8797ZM38.8689 11.8797C38.8389 11.8516 38.8146 11.8285 38.7903 11.8042C34.2133 7.19137 28.69 5.22943 22.2525 6.10222L22.2659 6.20132L22.2525 6.10222C17.2718 6.77787 13.1684 9.15734 10.0588 13.101C6.47471 17.6452 5.21849 22.8343 6.2465 28.5333C6.40611 29.4183 6.69026 30.2841 6.97148 31.141C7.06888 31.4378 7.16592 31.7335 7.25732 32.0286C7.32085 32.2337 7.43882 32.3825 7.5952 32.4618C7.75122 32.5408 7.93265 32.5441 8.11076 32.4831L8.11088 32.483C8.28881 32.4218 8.42163 32.3029 8.49286 32.1439C8.56356 31.9861 8.56984 31.7977 8.51288 31.6012L8.51277 31.6008C8.48642 31.5111 8.45068 31.4199 8.41695 31.3338C8.40099 31.2931 8.38549 31.2536 8.37164 31.2158L8.37158 31.2157C7.21564 28.0854 6.93073 24.8785 7.57708 21.6068L7.47897 21.5874L7.57708 21.6068C9.13483 13.7198 15.6643 7.86425 23.6572 7.29681L23.6572 7.29681C29.0845 6.91054 33.7641 8.69463 37.6466 12.5349L37.6467 12.5351C37.6771 12.565 37.7041 12.5962 37.7336 12.6322C37.71 12.632 37.6896 12.631 37.6701 12.6288L37.6696 12.6287C36.938 12.5482 36.2063 12.4667 35.4746 12.3851C35.109 12.3444 34.7433 12.3037 34.3777 12.2631C34.1474 12.2371 33.9447 12.2704 33.7906 12.3686C33.6336 12.4685 33.539 12.6283 33.5148 12.8283C33.4897 13.0309 33.5401 13.2097 33.6678 13.344C33.7932 13.4758 33.9817 13.5529 34.2116 13.5794L38.8689 11.8797Z" fill="#01C0CC" stroke="#01C0CC" stroke-width="0.2"/>
<path d="M21.2211 27.4972L21.2837 27.5194L18.4801 24.8778L18.5232 24.7875C18.5232 24.7875 18.5232 24.7875 18.5231 24.7875C18.3158 24.6886 18.1167 24.6567 17.9422 24.7032C17.7649 24.7504 17.6286 24.8744 17.5429 25.0548L17.5429 25.0549C17.4579 25.2339 17.4499 25.415 17.5293 25.5808C17.6069 25.7428 17.761 25.8762 17.9722 25.9796L17.9722 25.9796C18.8918 26.4293 19.8124 26.8769 20.7341 27.3212C20.8165 27.3612 20.9076 27.3914 21.024 27.4301C21.0826 27.4496 21.1476 27.4712 21.2211 27.4972Z" fill="#01C0CC" stroke="#01C0CC" stroke-width="0.2"/>
</svg>
