<svg width="50" height="50" viewBox="0 0 50 50" fill="none" xmlns="http://www.w3.org/2000/svg">
<path d="M36.4423 20.6151C38.2419 20.6151 39.9626 20.6313 41.6833 20.6088C42.6438 20.5963 43.3138 20.9803 43.7784 21.8258C45.0407 24.126 46.3269 26.4137 47.613 28.7026C48.0751 29.5256 48.3118 30.3962 48.3005 31.3443C48.2855 32.6101 48.2993 33.8771 48.2955 35.1429C48.293 36.116 47.7883 36.6751 46.829 36.6151C46.0326 36.565 45.6005 36.7226 45.2862 37.5794C44.7101 39.1479 43.0145 40.0947 41.3977 39.9922C39.6332 39.8796 38.1943 38.7714 37.6621 37.1154C37.6145 36.969 37.5707 36.8214 37.5118 36.6326C36.7141 36.6326 35.9189 36.6326 35.1236 36.6326C31.5545 36.6326 27.9854 36.6376 24.4163 36.6251C24.0695 36.6238 23.9092 36.6939 23.8015 37.0591C23.2855 38.8127 21.6976 39.9822 19.8817 39.9984C18.1009 40.0147 16.4729 38.8227 15.9482 37.0754C15.843 36.7251 15.7065 36.6201 15.3446 36.6238C13.4198 36.6438 11.4937 36.6338 9.56889 36.6326C8.80623 36.6313 8.56328 36.3874 8.56328 35.6194C8.56203 34.0572 8.56328 32.4937 8.56328 30.8715C8.37919 30.8627 8.21514 30.8477 8.05109 30.8477C6.39177 30.8465 4.73245 30.8477 3.07313 30.8465C2.91659 30.8465 2.75755 30.8552 2.60477 30.8277C2.23408 30.7589 2.0287 30.515 2.0024 30.1498C1.97736 29.8021 2.14892 29.5369 2.47828 29.4231C2.66488 29.3593 2.87777 29.3505 3.07814 29.3505C6.03611 29.3468 8.99533 29.348 11.9533 29.348C12.0623 29.348 12.1737 29.343 12.2814 29.3555C12.7398 29.4068 13.0265 29.7007 13.024 30.111C13.0215 30.5413 12.7172 30.8365 12.2251 30.844C11.525 30.8565 10.8237 30.8465 10.0936 30.8465C10.0936 32.2911 10.0936 33.687 10.0936 35.1129C10.2026 35.1204 10.2927 35.1304 10.3829 35.1304C12.0735 35.1316 13.7641 35.1266 15.4548 35.1354C15.7102 35.1366 15.8292 35.0766 15.9094 34.8039C16.4529 32.9453 18.0233 31.7595 19.893 31.7633C21.7314 31.7658 23.293 32.9553 23.844 34.7902C23.9104 35.0091 23.9618 35.1379 24.2335 35.1379C27.74 35.1266 31.2465 35.1291 34.753 35.1266C34.783 35.1266 34.8131 35.1116 34.892 35.0916C34.892 28.5938 34.892 22.0847 34.892 15.5381C26.6405 15.5381 18.3852 15.5381 10.0974 15.5381C10.0974 16.2786 10.0974 17.0228 10.0974 17.8371C10.2602 17.8371 10.4255 17.8371 10.5908 17.8371C11.8268 17.8371 13.0641 17.8333 14.3001 17.8396C14.9013 17.8421 15.2369 18.1198 15.2356 18.5863C15.2344 19.0503 14.895 19.3355 14.2976 19.3368C11.371 19.3405 8.44431 19.3393 5.51765 19.338C5.44001 19.338 5.36111 19.3368 5.28347 19.3268C4.85267 19.2717 4.57466 18.9853 4.56965 18.5938C4.56464 18.1848 4.85643 17.8609 5.31227 17.8496C6.18889 17.8271 7.06551 17.8396 7.94213 17.8371C8.12748 17.8371 8.31282 17.8371 8.56203 17.8371C8.56203 17.0829 8.56078 16.3699 8.56203 15.6582C8.56328 14.4925 9.04793 14.0009 10.2101 14.0009C18.3965 13.9997 26.5841 13.9997 34.7705 14.0009C35.9539 14.0009 36.4411 14.4962 36.4423 15.692C36.4436 17.1454 36.4423 18.6001 36.4423 20.0535C36.4423 20.2223 36.4423 20.3899 36.4423 20.6151ZM36.4761 35.1079C37.4417 35.1792 37.4404 35.1792 37.7485 34.3899C37.7773 34.3174 37.8061 34.2448 37.8374 34.1735C38.5462 32.6188 40.1316 31.6682 41.8486 31.767C43.5492 31.8646 45.0169 33.0403 45.5404 34.7076C45.5892 34.8615 45.7045 35.0879 45.8197 35.1079C46.1302 35.1642 46.4571 35.1266 46.794 35.1266C46.794 33.8158 46.784 32.5813 46.7977 31.3468C46.8052 30.6726 46.6449 30.0522 46.3168 29.4656C45.027 27.1617 43.7383 24.8577 42.4597 22.5475C42.2881 22.2373 42.0765 22.1035 41.7158 22.1073C40.0878 22.1223 38.4598 22.1135 36.8318 22.116C36.7141 22.116 36.5951 22.1398 36.4761 22.1523C36.4761 26.4887 36.4761 30.7839 36.4761 35.1079ZM17.2882 35.8496C17.2932 37.3405 18.4077 38.4825 19.8717 38.4962C21.3081 38.5088 22.474 37.3243 22.4702 35.8558C22.4665 34.42 21.3144 33.2667 19.8767 33.263C18.4328 33.2592 17.2844 34.4074 17.2882 35.8496ZM44.1741 35.8996C44.1729 34.4137 43.0458 33.2655 41.5843 33.263C40.1454 33.2605 38.992 34.4137 38.9933 35.8533C38.9945 37.333 40.1241 38.485 41.5856 38.4975C43.0045 38.5075 44.1741 37.3343 44.1741 35.8996Z" fill="#01C0CC"/>
<path d="M8.26305 25.9472C8.26305 24.4788 8.25678 23.0892 8.2668 21.6996C8.27056 21.2268 8.5924 20.9016 9.01193 20.9028C9.42645 20.9041 9.73702 21.2318 9.76332 21.7033C9.77083 21.8434 9.76582 21.9848 9.76582 22.1248C9.76582 23.3744 9.76582 24.6239 9.76582 25.9447C9.94866 25.9447 10.1127 25.9447 10.278 25.9447C13.266 25.9447 16.2553 25.9447 19.2433 25.9447C19.3836 25.9447 19.5276 25.931 19.6654 25.9547C20.0486 26.0198 20.2878 26.2424 20.3128 26.6414C20.3391 27.0629 20.1162 27.3206 19.7205 27.4232C19.5877 27.4569 19.4412 27.4457 19.2997 27.4457C15.0443 27.4469 10.7877 27.4469 6.53235 27.4457C6.42339 27.4457 6.31194 27.4507 6.20424 27.4357C5.78972 27.3781 5.52423 27.0692 5.5355 26.6677C5.54677 26.2674 5.82604 25.9635 6.25308 25.951C6.90303 25.9335 7.55674 25.9472 8.26305 25.9472Z" fill="#01C0CC"/>
</svg>
